<svg xmlns="http://www.w3.org/2000/svg" style="display: none;">
  <defs>
    <!-- Game Icons -->
    <g id="icon-play">
      <circle cx="12" cy="12" r="10" fill="none" stroke="currentColor" stroke-width="2"/>
      <polygon points="10,8 16,12 10,16" fill="currentColor"/>
    </g>
    
    <g id="icon-crown">
      <path d="M2 20h20l-2-8-3 2-3-4-3 4-3-2-2 8z" fill="currentColor"/>
      <circle cx="7" cy="4" r="2" fill="currentColor"/>
      <circle cx="12" cy="2" r="2" fill="currentColor"/>
      <circle cx="17" cy="4" r="2" fill="currentColor"/>
    </g>
    
    <g id="icon-graduation-cap">
      <path d="M22 10v6M2 10l10-5 10 5-10 5z" fill="none" stroke="currentColor" stroke-width="2" stroke-linecap="round" stroke-linejoin="round"/>
      <path d="M6 12v5c3 3 9 3 12 0v-5" fill="none" stroke="currentColor" stroke-width="2" stroke-linecap="round" stroke-linejoin="round"/>
    </g>
    
    <g id="icon-box">
      <path d="M21 16V8a2 2 0 0 0-1-1.73l-7-4a2 2 0 0 0-2 0l-7 4A2 2 0 0 0 3 8v8a2 2 0 0 0 1 1.73l7 4a2 2 0 0 0 2 0l7-4A2 2 0 0 0 21 16z" fill="none" stroke="currentColor" stroke-width="2" stroke-linecap="round" stroke-linejoin="round"/>
      <polyline points="3.27,6.96 12,12.01 20.73,6.96" fill="none" stroke="currentColor" stroke-width="2" stroke-linecap="round" stroke-linejoin="round"/>
      <line x1="12" y1="22.08" x2="12" y2="12" stroke="currentColor" stroke-width="2" stroke-linecap="round" stroke-linejoin="round"/>
    </g>
    
    <g id="icon-medal">
      <circle cx="12" cy="8" r="6" fill="none" stroke="currentColor" stroke-width="2"/>
      <path d="M15.477 12.89 17 22l-5-3-5 3 1.523-9.11" fill="none" stroke="currentColor" stroke-width="2" stroke-linecap="round" stroke-linejoin="round"/>
      <circle cx="12" cy="8" r="2" fill="currentColor"/>
    </g>
    
    <g id="icon-settings">
      <circle cx="12" cy="12" r="3" fill="none" stroke="currentColor" stroke-width="2"/>
      <path d="M19.4 15a1.65 1.65 0 0 0 .33 1.82l.06.06a2 2 0 0 1 0 2.83 2 2 0 0 1-2.83 0l-.06-.06a1.65 1.65 0 0 0-1.82-.33 1.65 1.65 0 0 0-1 1.51V21a2 2 0 0 1-2 2 2 2 0 0 1-2-2v-.09A1.65 1.65 0 0 0 9 19.4a1.65 1.65 0 0 0-1.82.33l-.06.06a2 2 0 0 1-2.83 0 2 2 0 0 1 0-2.83l.06-.06a1.65 1.65 0 0 0 .33-1.82 1.65 1.65 0 0 0-1.51-1H3a2 2 0 0 1-2-2 2 2 0 0 1 2-2h.09A1.65 1.65 0 0 0 4.6 9a1.65 1.65 0 0 0-.33-1.82l-.06-.06a2 2 0 0 1 0-2.83 2 2 0 0 1 2.83 0l.06.06a1.65 1.65 0 0 0 1.82.33H9a1.65 1.65 0 0 0 1-1.51V3a2 2 0 0 1 2-2 2 2 0 0 1 2 2v.09a1.65 1.65 0 0 0 1 1.51 1.65 1.65 0 0 0 1.82-.33l.06-.06a2 2 0 0 1 2.83 0 2 2 0 0 1 0 2.83l-.06.06a1.65 1.65 0 0 0-.33 1.82V9a1.65 1.65 0 0 0 1.51 1H21a2 2 0 0 1 2 2 2 2 0 0 1-2 2h-.09a1.65 1.65 0 0 0-1.51 1z" fill="none" stroke="currentColor" stroke-width="2"/>
    </g>
    
    <g id="icon-help">
      <circle cx="12" cy="12" r="10" fill="none" stroke="currentColor" stroke-width="2"/>
      <path d="M9.09 9a3 3 0 0 1 5.83 1c0 2-3 3-3 3" fill="none" stroke="currentColor" stroke-width="2" stroke-linecap="round" stroke-linejoin="round"/>
      <line x1="12" y1="17" x2="12.01" y2="17" stroke="currentColor" stroke-width="2" stroke-linecap="round" stroke-linejoin="round"/>
    </g>
    
    <!-- Poker-specific icons -->
    <g id="icon-chips">
      <ellipse cx="12" cy="8" rx="8" ry="3" fill="none" stroke="currentColor" stroke-width="2"/>
      <ellipse cx="12" cy="12" rx="8" ry="3" fill="none" stroke="currentColor" stroke-width="2"/>
      <ellipse cx="12" cy="16" rx="8" ry="3" fill="none" stroke="currentColor" stroke-width="2"/>
      <path d="M4 8v8c0 1.66 3.58 3 8 3s8-1.34 8-3V8" fill="none" stroke="currentColor" stroke-width="2"/>
    </g>
    
    <g id="icon-cards">
      <rect x="2" y="6" width="10" height="14" rx="2" fill="none" stroke="currentColor" stroke-width="2"/>
      <rect x="6" y="2" width="10" height="14" rx="2" fill="none" stroke="currentColor" stroke-width="2"/>
      <path d="M8 10h2" stroke="currentColor" stroke-width="2" stroke-linecap="round"/>
      <path d="M8 14h2" stroke="currentColor" stroke-width="2" stroke-linecap="round"/>
    </g>
    
    <g id="icon-trophy">
      <path d="M6 9H4.5a2.5 2.5 0 0 1 0-5H6" fill="none" stroke="currentColor" stroke-width="2" stroke-linecap="round" stroke-linejoin="round"/>
      <path d="M18 9h1.5a2.5 2.5 0 0 0 0-5H18" fill="none" stroke="currentColor" stroke-width="2" stroke-linecap="round" stroke-linejoin="round"/>
      <path d="M18 4H6v10a4 4 0 0 0 4 4h4a4 4 0 0 0 4-4V4z" fill="none" stroke="currentColor" stroke-width="2" stroke-linecap="round" stroke-linejoin="round"/>
      <line x1="6" y1="22" x2="18" y2="22" stroke="currentColor" stroke-width="2" stroke-linecap="round" stroke-linejoin="round"/>
      <line x1="10" y1="18" x2="14" y2="18" stroke="currentColor" stroke-width="2" stroke-linecap="round" stroke-linejoin="round"/>
    </g>
    
    <g id="icon-flag">
      <path d="M4 21v-7M4 14l5-2 5 2v7l-5-2-5 2V3l5 2 5-2v7" fill="none" stroke="currentColor" stroke-width="2" stroke-linecap="round" stroke-linejoin="round"/>
    </g>
    
    <g id="icon-check">
      <polyline points="20,6 9,17 4,12" fill="none" stroke="currentColor" stroke-width="2" stroke-linecap="round" stroke-linejoin="round"/>
    </g>
    
    <g id="icon-arrow-up">
      <line x1="12" y1="19" x2="12" y2="5" stroke="currentColor" stroke-width="2" stroke-linecap="round" stroke-linejoin="round"/>
      <polyline points="5,12 12,5 19,12" fill="none" stroke="currentColor" stroke-width="2" stroke-linecap="round" stroke-linejoin="round"/>
    </g>
    
    <g id="icon-times">
      <line x1="18" y1="6" x2="6" y2="18" stroke="currentColor" stroke-width="2" stroke-linecap="round" stroke-linejoin="round"/>
      <line x1="6" y1="6" x2="18" y2="18" stroke="currentColor" stroke-width="2" stroke-linecap="round" stroke-linejoin="round"/>
    </g>
    
    <g id="icon-menu">
      <line x1="3" y1="6" x2="21" y2="6" stroke="currentColor" stroke-width="2" stroke-linecap="round" stroke-linejoin="round"/>
      <line x1="3" y1="12" x2="21" y2="12" stroke="currentColor" stroke-width="2" stroke-linecap="round" stroke-linejoin="round"/>
      <line x1="3" y1="18" x2="21" y2="18" stroke="currentColor" stroke-width="2" stroke-linecap="round" stroke-linejoin="round"/>
    </g>
    
    <g id="icon-home">
      <path d="M3 9l9-7 9 7v11a2 2 0 0 1-2 2H5a2 2 0 0 1-2-2z" fill="none" stroke="currentColor" stroke-width="2" stroke-linecap="round" stroke-linejoin="round"/>
      <polyline points="9,22 9,12 15,12 15,22" fill="none" stroke="currentColor" stroke-width="2" stroke-linecap="round" stroke-linejoin="round"/>
    </g>
    
    <g id="icon-redo">
      <polyline points="1,4 1,10 7,10" fill="none" stroke="currentColor" stroke-width="2" stroke-linecap="round" stroke-linejoin="round"/>
      <path d="M3.51 15a9 9 0 1 0 2.13-9.36L1 10" fill="none" stroke="currentColor" stroke-width="2" stroke-linecap="round" stroke-linejoin="round"/>
    </g>
    
    <g id="icon-search">
      <circle cx="11" cy="11" r="8" fill="none" stroke="currentColor" stroke-width="2"/>
      <path d="m21 21-4.35-4.35" stroke="currentColor" stroke-width="2" stroke-linecap="round" stroke-linejoin="round"/>
    </g>
    
    <g id="icon-user">
      <path d="M20 21v-2a4 4 0 0 0-4-4H8a4 4 0 0 0-4 4v2" fill="none" stroke="currentColor" stroke-width="2" stroke-linecap="round" stroke-linejoin="round"/>
      <circle cx="12" cy="7" r="4" fill="none" stroke="currentColor" stroke-width="2"/>
    </g>
    
    <!-- Casino atmosphere icons -->
    <g id="icon-dice">
      <rect x="3" y="3" width="10" height="10" rx="2" ry="2" fill="none" stroke="currentColor" stroke-width="2"/>
      <circle cx="7" cy="7" r="1" fill="currentColor"/>
      <circle cx="9" cy="9" r="1" fill="currentColor"/>
      <rect x="11" y="11" width="10" height="10" rx="2" ry="2" fill="none" stroke="currentColor" stroke-width="2"/>
      <circle cx="15" cy="15" r="1" fill="currentColor"/>
      <circle cx="17" cy="15" r="1" fill="currentColor"/>
      <circle cx="15" cy="17" r="1" fill="currentColor"/>
      <circle cx="17" cy="17" r="1" fill="currentColor"/>
    </g>
    
    <g id="icon-spade">
      <path d="M12 2s-4 4-4 8c0 2.21 1.79 4 4 4s4-1.79 4-4c0-4-4-8-4-8z" fill="currentColor"/>
      <path d="M12 14v6m-2 0h4" stroke="currentColor" stroke-width="2" stroke-linecap="round"/>
    </g>
    
    <g id="icon-heart-suit">
      <path d="M20.84 4.61a5.5 5.5 0 0 0-7.78 0L12 5.67l-1.06-1.06a5.5 5.5 0 0 0-7.78 7.78l1.06 1.06L12 21.23l7.78-7.78 1.06-1.06a5.5 5.5 0 0 0 0-7.78z" fill="currentColor"/>
    </g>
    
    <g id="icon-diamond-suit">
      <path d="M12 2 6 12l6 10 6-10-6-10z" fill="currentColor"/>
    </g>
    
    <g id="icon-club-suit">
      <circle cx="12" cy="8" r="4" fill="currentColor"/>
      <circle cx="6" cy="14" r="4" fill="currentColor"/>
      <circle cx="18" cy="14" r="4" fill="currentColor"/>
      <path d="M12 14v6m-2 0h4" stroke="currentColor" stroke-width="2" stroke-linecap="round"/>
    </g>
    
  </defs>
</svg>
